<svg id="Layer_1" data-name="Layer 1" xmlns="http://www.w3.org/2000/svg" viewBox="0 0 500 500"><defs><style>.cls-1{fill:#063962;}.cls-2{fill:#095591;}.cls-3{fill:#d1d526;}.cls-4{fill:#0a5591;}.cls-5{fill:#0b5691;}.cls-6{fill:#0b5690;}.cls-7{fill:#0d578f;}.cls-8{fill:#d2d626;}.cls-9{fill:#d1d527;}.cls-10{fill:#0a5592;}</style></defs><title>woo-commerce</title><path class="cls-1" d="M214.81,500H0V0H500V237.5a13,13,0,0,1-2.22-1.53c-2.2-2.26-4.32-4.6-6.46-6.93q-10.45-11.4-20.89-22.82-16.35-17.91-32.67-35.84c-7.2-7.91-14.36-15.86-21.59-23.75a36.19,36.19,0,0,0-3.47-2.92l.11-.13.14.08-.7-.61a13.36,13.36,0,0,1-1.1-1.16c-5-6.61-9.75-13.42-15-19.78a167.51,167.51,0,0,0-22.35-21.64,195,195,0,0,0-198-29.82,188.72,188.72,0,0,0-59.33,38.4A212.19,212.19,0,0,0,95.6,132.2,187.56,187.56,0,0,0,67,185a191.57,191.57,0,0,0-10.83,53.53c-2.1,38.07,6,73.82,24.64,107.15a202.25,202.25,0,0,0,29.79,40c3.11,3.28,6.5,6.31,9.76,9.45l.8,1H121V396l.66.65.08-.1a12.48,12.48,0,0,0,1.24,2.1c6.63,7.31,13.3,14.57,19.95,21.87q20.38,22.39,40.77,44.81c9,9.91,18.15,19.75,27.19,29.66C212.28,496.54,213.5,498.32,214.81,500Z" transform="translate(0)"/><path class="cls-2" d="M412.7,143.71a36.19,36.19,0,0,1,3.47,2.92c7.23,7.89,14.39,15.84,21.59,23.75q16.32,17.93,32.67,35.84,10.43,11.42,20.89,22.82c2.14,2.33,4.26,4.67,6.46,6.93A13,13,0,0,0,500,237.5V500H214.81c-1.31-1.68-2.53-3.46-4-5-9-9.91-18.15-19.75-27.19-29.66q-20.42-22.38-40.77-44.81c-6.65-7.3-13.32-14.56-19.95-21.87a12.48,12.48,0,0,1-1.24-2.1,16.56,16.56,0,0,1,1.94,1.2c2.73,2.24,5.33,4.66,8.15,6.76a199.9,199.9,0,0,0,53,28.64,190.24,190.24,0,0,0,51.67,10.71c42.13,2.66,81.21-7,117.1-29.36a185.51,185.51,0,0,0,40-33.55,204.36,204.36,0,0,0,19.51-25.33,189.34,189.34,0,0,0,22.08-46.89,194.67,194.67,0,0,0,7.28-83.89A192.65,192.65,0,0,0,419,154.66C417,151,414.82,147.36,412.7,143.71Z" transform="translate(0)"/><path class="cls-3" d="M412.7,143.71c2.12,3.65,4.25,7.29,6.34,10.95a192.65,192.65,0,0,1,23.39,70.16,194.67,194.67,0,0,1-7.28,83.89,189.34,189.34,0,0,1-22.08,46.89,204.36,204.36,0,0,1-19.51,25.33,185.51,185.51,0,0,1-40,33.55c-35.89,22.35-75,32-117.1,29.36a190.24,190.24,0,0,1-51.67-10.71,199.9,199.9,0,0,1-53-28.64c-2.82-2.1-5.42-4.52-8.15-6.76a16.56,16.56,0,0,0-1.94-1.2l-.08.1L121,396v.21h.21l-.8-1c-3.26-3.14-6.65-6.17-9.76-9.45a202.25,202.25,0,0,1-29.79-40c-18.67-33.33-26.74-69.08-24.64-107.15A191.57,191.57,0,0,1,67,185,187.56,187.56,0,0,1,95.6,132.2a212.19,212.19,0,0,1,20.78-23.15,188.72,188.72,0,0,1,59.33-38.4,194.09,194.09,0,0,1,92-13.81,193.64,193.64,0,0,1,106.07,43.63,167.51,167.51,0,0,1,22.35,21.64c5.29,6.36,10,13.17,15,19.78a13.36,13.36,0,0,0,1.1,1.16l.7.61-.14-.08ZM217.5,241.29h14.22c16,0,31.93,0,47.9,0A18.2,18.2,0,0,0,298.05,223q.12-30.54,0-61.1c0-10.48-8.08-18.34-18.57-18.34H119.31A18,18,0,0,0,101,161.78q0,30.56,0,61.1a18.17,18.17,0,0,0,18.33,18.4q20.35.18,40.72.24c9.71,0,19.42-.1,29.12-.05a8.21,8.21,0,0,1,3.68,1.08c10.06,5.53,20.08,11.14,30.12,16.71.63.35,1.29.64,2.38,1.17C222.61,253.84,220.13,247.75,217.5,241.29ZM250,100.7c4.62.24,9.24.46,13.86.74,1.77.11,3.54.3,5.29.56,41.94,6,75.83,25.81,101.09,59.84C389,187,398.52,215.56,399.06,247c.11,6.09-.45,12.18-.46,18.26a8.13,8.13,0,0,0,8.9,8.23c4.34-.42,7.35-3.63,7.75-8.67a170.47,170.47,0,0,0-1.05-38.31c-4.44-30.23-16-57.44-35.5-81-31.45-38-72-58.45-121.25-61.16A160,160,0,0,0,188,96.16a14.28,14.28,0,0,0-3.74,2.22,7.7,7.7,0,0,0-2.56,8.55,7.55,7.55,0,0,0,7,5.55,15.26,15.26,0,0,0,5.84-1A150.36,150.36,0,0,1,250,100.7Zm0,315.62c8.51-.81,17.07-1.28,25.52-2.5C298,410.6,318.69,402.5,338,390.73a8.28,8.28,0,0,0,2.58-12.05,8.57,8.57,0,0,0-12.26-1.95,46.68,46.68,0,0,1-4.65,3c-38.29,21.11-78.45,25.38-120,12-37.49-12.07-65.58-36.08-84.74-70.44a141.09,141.09,0,0,1-16.58-50c-.72-5.22-4.36-8.53-9.16-8a8.82,8.82,0,0,0-7.46,10.24c.82,4.94,1.71,9.89,2.88,14.75A166.74,166.74,0,0,0,250,416.32Zm26.53-93.62h19.9c6.15-.13,10.49-4.66,10.06-10.78a22.31,22.31,0,0,0-1.42-6.51,33.69,33.69,0,1,0-27.49,45.85,32.93,32.93,0,0,0,16.17-6.37c2.9-2.15,3.57-5.62,1.68-8.33s-5.35-3.3-8.38-1.34c-.58.38-1.13.8-1.72,1.17a22,22,0,0,1-31.45-9.29c-1.41-3-.55-4.39,2.74-4.4Zm93.17,28.68a33.74,33.74,0,1,0-33.57-33.83A33.75,33.75,0,0,0,369.71,351.38Zm-185.13,0c10.41.08,17.16-2.2,23.19-6.64a5.82,5.82,0,0,0,1.62-8.15c-1.89-2.73-5.4-3.32-8.4-1.41-.71.45-1.4,1-2.12,1.39a22,22,0,0,1-32.65-24c3.66-15.17,21-21.61,34.19-12.71,3.46,2.34,6.94,1.93,8.94-1.05s1.06-6.28-2.17-8.58a33.75,33.75,0,0,0-51.53,38.3C160.13,342.08,173.06,351.38,184.58,351.39ZM327.3,308c0-11.8,0-23.6,0-35.4,0-3.69-2.57-6.34-6-6.33s-5.76,2.6-5.93,6.16c0,.38,0,.77,0,1.16q0,34.36,0,68.73a11.79,11.79,0,0,0,.28,3,5.87,5.87,0,0,0,7.86,4c2.39-1,3.74-3.07,3.74-6.08Q327.32,325.63,327.3,308Zm-96.2,9.8c0-8.56,0-17.12,0-25.68,0-3.94-2.45-6.56-5.95-6.53s-5.83,2.61-5.83,6.4q0,25.68,0,51.37a7.59,7.59,0,0,0,.78,3.31,5.77,5.77,0,0,0,6.52,2.82,5.85,5.85,0,0,0,4.44-5.78C231.13,335.11,231.1,326.47,231.1,317.83Zm-5.85-38.16a7.6,7.6,0,0,0,7.55-7.45,7.59,7.59,0,1,0-15.18.09A7.59,7.59,0,0,0,225.25,279.67Z" transform="translate(0)"/><path class="cls-2" d="M120.36,395.16l.8,1Z" transform="translate(0)"/><path class="cls-2" d="M413,143.66l-.7-.61Z" transform="translate(0)"/><path class="cls-2" d="M121,396l.66.65Z" transform="translate(0)"/><path class="cls-4" d="M217.5,241.29c2.63,6.46,5.11,12.55,7.8,19.14-1.09-.53-1.75-.82-2.38-1.17-10-5.57-20.06-11.18-30.12-16.71a8.21,8.21,0,0,0-3.68-1.08c-9.7-.05-19.41.07-29.12.05q-20.37,0-40.72-.24A18.17,18.17,0,0,1,101,222.88q0-30.54,0-61.1a18,18,0,0,1,18.36-18.26H279.48c10.49,0,18.54,7.86,18.57,18.34q.1,30.55,0,61.1a18.2,18.2,0,0,1-18.43,18.32c-16,.05-31.93,0-47.9,0ZM132,206.05c-1.55-7.82-3-14.93-4.37-22.08-1.28-6.9-2.35-13.84-3.63-20.74a8.75,8.75,0,0,0-1.6-3.88c-1.46-1.75-6.29-2.09-8.4-.89a7.19,7.19,0,0,0-3.34,7.4c1.1,5.93,2,11.91,3.22,17.82,2.26,11.09,4.49,22.2,7.12,33.2a60.15,60.15,0,0,0,4.74,12.45c1.43,2.89,3.68,3.45,6.68,1.34a14.25,14.25,0,0,0,4-4.09c3-4.93,5.76-10,8.46-15.07,2.85-5.34,5.51-10.78,8.27-16.21.25.2.42.26.45.36,3.34,12.08,8.32,23.34,16.8,32.76,2,2.22,4.41,4.25,7.77,3.39,2.89-.74,4.16-3.34,4.23-7.54.09-4.52.14-9.05.49-13.56.46-6,.9-12,1.89-17.89,1.67-9.88,3.44-19.76,7.94-28.92,2-4.1-.1-7.3-3.4-8.82-3.9-1.79-6.77-.87-8.84,3-6,11.24-7.94,23.57-9.67,36l-.87,6.41a28,28,0,0,1-2.81-6.78c-1.78-6.85-3.5-13.71-5.09-20.61-1.09-4.76-5.43-6.76-9-4.4a12.3,12.3,0,0,0-3.56,4.37c-4.51,8.37-8.86,16.81-13.28,25.22C135,200.66,133.67,203,132,206.05Zm106.06-18c-.16-1.64-.29-3.77-.61-5.88-.88-5.78-3-11.12-7.68-14.76-8.27-6.44-19.7-6.51-27.6,2.13-7.16,7.82-10.1,17.33-10.47,27.68A32.12,32.12,0,0,0,194.5,211a19.77,19.77,0,0,0,32.35,6.35C234.76,209.41,237.66,199.5,238.09,188.1Zm49.87.67c.19-7.06-.84-10.24-3.22-15.32-4-8.56-15-12.26-23.36-9.67-6.79,2.11-10.84,7.15-14.11,13a41.2,41.2,0,0,0-4.59,28c1.1,6.19,3.82,11.76,9.46,15.24,10.21,6.29,20.89,3.26,27.65-5.69A38.53,38.53,0,0,0,288,188.77Z" transform="translate(0)"/><path class="cls-5" d="M250,100.7a150.36,150.36,0,0,0-55.55,10.77,15.26,15.26,0,0,1-5.84,1,7.55,7.55,0,0,1-7-5.55,7.7,7.7,0,0,1,2.56-8.55A14.28,14.28,0,0,1,188,96.16a160,160,0,0,1,69.47-11.81c49.24,2.71,89.8,23.18,121.25,61.16,19.5,23.54,31.06,50.75,35.5,81a170.47,170.47,0,0,1,1.05,38.31c-.4,5-3.41,8.25-7.75,8.67a8.13,8.13,0,0,1-8.9-8.23c0-6.08.57-12.17.46-18.26-.54-31.42-10.08-59.94-28.79-85.14C345,127.81,311.12,108,269.18,102c-1.75-.26-3.52-.45-5.29-.56C259.27,101.16,254.65,100.94,250,100.7Z" transform="translate(0)"/><path class="cls-5" d="M250,416.32a166.74,166.74,0,0,1-161.39-128c-1.17-4.86-2.06-9.81-2.88-14.75a8.82,8.82,0,0,1,7.46-10.24c4.8-.53,8.44,2.78,9.16,8a141.09,141.09,0,0,0,16.58,50c19.16,34.36,47.25,58.37,84.74,70.44,41.55,13.38,81.71,9.11,120-12a46.68,46.68,0,0,0,4.65-3,8.57,8.57,0,0,1,12.26,1.95A8.28,8.28,0,0,1,338,390.73c-19.32,11.77-40,19.87-62.48,23.09C267.08,415,258.52,415.51,250,416.32Z" transform="translate(0)"/><path class="cls-6" d="M276.54,322.7H256.63c-3.29,0-4.15,1.41-2.74,4.4a22,22,0,0,0,31.45,9.29c.59-.37,1.14-.79,1.72-1.17,3-2,6.48-1.4,8.38,1.34s1.22,6.18-1.68,8.33a32.93,32.93,0,0,1-16.17,6.37,33.73,33.73,0,1,1,27.49-45.85,22.31,22.31,0,0,1,1.42,6.51c.43,6.12-3.91,10.65-10.06,10.78h-19.9Zm-3-10c5.86,0,11.72,0,17.58,0,2.91,0,3.89-1.41,2.65-4-4-8.3-10.69-12.9-20-12.92s-16,4.49-20.05,12.79c-1.33,2.7-.39,4.06,2.68,4.08C262.13,312.68,267.84,312.66,273.54,312.66Z" transform="translate(0)"/><path class="cls-6" d="M369.71,351.38a33.74,33.74,0,1,1,33.94-33.72A33.67,33.67,0,0,1,369.71,351.38ZM370,295.7a22,22,0,0,0-.19,44,22.24,22.24,0,0,0,22.1-22.07A22,22,0,0,0,370,295.7Z" transform="translate(0)"/><path class="cls-6" d="M184.58,351.39c-11.52,0-24.45-9.31-28.93-22.89a33.75,33.75,0,0,1,51.53-38.3c3.23,2.3,4.1,5.71,2.17,8.58s-5.48,3.39-8.94,1.05c-13.2-8.9-30.53-2.46-34.19,12.71a22,22,0,0,0,32.65,24c.72-.43,1.41-.94,2.12-1.39,3-1.91,6.51-1.32,8.4,1.41a5.82,5.82,0,0,1-1.62,8.15C201.74,349.19,195,351.47,184.58,351.39Z" transform="translate(0)"/><path class="cls-7" d="M327.3,308q0,17.6,0,35.18c0,3-1.35,5.13-3.74,6.08a5.87,5.87,0,0,1-7.86-4,11.79,11.79,0,0,1-.28-3q0-34.37,0-68.73c0-.39,0-.78,0-1.16.17-3.56,2.66-6.15,5.93-6.16s5.94,2.64,6,6.33C327.32,284.43,327.3,296.23,327.3,308Z" transform="translate(0)"/><path class="cls-2" d="M231.1,317.83c0,8.64,0,17.28,0,25.91a5.85,5.85,0,0,1-4.44,5.78,5.77,5.77,0,0,1-6.52-2.82,7.59,7.59,0,0,1-.78-3.31q-.08-25.69,0-51.37c0-3.79,2.43-6.37,5.83-6.4s5.93,2.59,5.95,6.53C231.12,300.71,231.1,309.27,231.1,317.83Z" transform="translate(0)"/><path class="cls-7" d="M225.25,279.67a7.59,7.59,0,0,1-7.63-7.36,7.59,7.59,0,1,1,15.18-.09A7.6,7.6,0,0,1,225.25,279.67Z" transform="translate(0)"/><path class="cls-8" d="M132,206.05c1.64-3,3-5.39,4.23-7.79,4.42-8.41,8.77-16.85,13.28-25.22a12.3,12.3,0,0,1,3.56-4.37c3.53-2.36,7.87-.36,9,4.4,1.59,6.9,3.31,13.76,5.09,20.61a28,28,0,0,0,2.81,6.78l.87-6.41c1.73-12.39,3.68-24.72,9.67-36,2.07-3.88,4.94-4.8,8.84-3,3.3,1.52,5.42,4.72,3.4,8.82-4.5,9.16-6.27,19-7.94,28.92-1,5.9-1.43,11.91-1.89,17.89-.35,4.51-.4,9-.49,13.56-.07,4.2-1.34,6.8-4.23,7.54-3.36.86-5.78-1.17-7.77-3.39-8.48-9.42-13.46-20.68-16.8-32.76,0-.1-.2-.16-.45-.36-2.76,5.43-5.42,10.87-8.27,16.21-2.7,5.09-5.49,10.14-8.46,15.07a14.25,14.25,0,0,1-4,4.09c-3,2.11-5.25,1.55-6.68-1.34A60.15,60.15,0,0,1,121,216.88c-2.63-11-4.86-22.11-7.12-33.2-1.21-5.91-2.12-11.89-3.22-17.82a7.19,7.19,0,0,1,3.34-7.4c2.11-1.2,6.94-.86,8.4.89a8.75,8.75,0,0,1,1.6,3.88c1.28,6.9,2.35,13.84,3.63,20.74C129,191.12,130.48,198.23,132,206.05Z" transform="translate(0)"/><path class="cls-8" d="M238.09,188.1c-.43,11.4-3.33,21.31-11.24,29.25A19.77,19.77,0,0,1,194.5,211a32.12,32.12,0,0,1-2.77-13.73c.37-10.35,3.31-19.86,10.47-27.68,7.9-8.64,19.33-8.57,27.6-2.13,4.67,3.64,6.8,9,7.68,14.76C237.8,184.33,237.93,186.46,238.09,188.1Zm-13.49,1.79c-.17-4-.82-7.53-2.84-10.72-1.71-2.7-3.91-3.5-6.83-2.19a8.83,8.83,0,0,0-3.23,2.39,27.75,27.75,0,0,0-6.33,14.78,19.6,19.6,0,0,0,3.31,13.32A4.13,4.13,0,0,0,214,209a14.53,14.53,0,0,0,5-3.43C223,201.08,224.12,195.44,224.6,189.89Z" transform="translate(0)"/><path class="cls-8" d="M288,188.77a38.53,38.53,0,0,1-8.17,25.53c-6.76,8.95-17.44,12-27.65,5.69-5.64-3.48-8.36-9.05-9.46-15.24a41.2,41.2,0,0,1,4.59-28c3.27-5.82,7.32-10.86,14.11-13,8.36-2.59,19.36,1.11,23.36,9.67C287.12,178.53,288.15,181.71,288,188.77Zm-12.81.77c-.84-3.11-1.32-6.37-2.59-9.29-2-4.61-6-5.09-9.72-1.69-4.23,3.9-6.34,8.93-7.17,14.36a19.85,19.85,0,0,0,2.47,13.65c1.43,2.33,3.72,3.42,6.14,2.47a12.29,12.29,0,0,0,3.64-2.24C272.93,202.21,274.45,196.22,275.15,189.54Z" transform="translate(0)"/><path class="cls-9" d="M273.54,312.66c-5.7,0-11.41,0-17.11,0-3.07,0-4-1.38-2.68-4.08,4.09-8.3,10.8-12.81,20.05-12.79s15.93,4.62,20,12.92c1.24,2.54.26,3.93-2.65,4C285.26,312.68,279.4,312.66,273.54,312.66Z" transform="translate(0)"/><path class="cls-3" d="M370,295.7a22,22,0,0,1,21.91,21.95,22,22,0,1,1-44,.06A22,22,0,0,1,370,295.7Z" transform="translate(0)"/><path class="cls-10" d="M224.6,189.89c-.48,5.55-1.62,11.19-5.62,15.7a14.53,14.53,0,0,1-5,3.43,4.13,4.13,0,0,1-5.29-1.55,19.6,19.6,0,0,1-3.31-13.32,27.75,27.75,0,0,1,6.33-14.78,8.83,8.83,0,0,1,3.23-2.39c2.92-1.31,5.12-.51,6.83,2.19C223.78,182.36,224.43,185.92,224.6,189.89Z" transform="translate(0)"/><path class="cls-10" d="M275.15,189.54c-.7,6.68-2.22,12.67-7.23,17.26a12.29,12.29,0,0,1-3.64,2.24c-2.42,1-4.71-.14-6.14-2.47a19.85,19.85,0,0,1-2.47-13.65c.83-5.43,2.94-10.46,7.17-14.36,3.7-3.4,7.72-2.92,9.72,1.69C273.83,183.17,274.31,186.43,275.15,189.54Z" transform="translate(0)"/></svg>